<?xml version="1.0" encoding="iso-8859-1"?>
<!-- Generator: Adobe Illustrator 19.1.0, SVG Export Plug-In . SVG Version: 6.00 Build 0)  -->
<svg version="1.1" id="Capa_1" xmlns="http://www.w3.org/2000/svg" xmlns:xlink="http://www.w3.org/1999/xlink" x="0px" y="0px"
	 viewBox="0 0 433.4 433.4" style="enable-background:new 0 0 433.4 433.4;" xml:space="preserve">
<g>
	<path style="fill:#333333;" d="M395.125,226.68c7.26,8.15,11.22,18.5,11.22,29.54c0,23.33-18.02,42.51-40.87,44.38
		c-9.52,30.66-34.72,65.4-75.33,103.68c-20.59,19.41-47.01,29.12-73.44,29.12s-52.85-9.71-73.45-29.12
		c-40.6-38.28-65.81-73.02-75.32-103.68c-22.85-1.87-40.88-21.06-40.88-44.38c0-11.31,4.25-21.65,11.22-29.51
		c-2.93-60.01-4.51-100.11,14.47-137.07c1.07-2.07,2.2-4.13,3.37-6.14c13.62-23.42,38.98-38.54,66.84-40.11
		c21.55-26.35,52.86-42.06,86.49-43.26c38.28-1.36,75.98,7.97,109.03,26.99c28.34,16.32,49.26,37.35,62.19,62.52
		C399.635,126.58,398.055,166.68,395.125,226.68z M390.345,256.22c0-6.79-2.34-13.18-6.65-18.31l-13.89,0.77v35.29
		c0,3.22-0.22,6.5-0.63,9.82C381.355,280.54,390.345,269.41,390.345,256.22z M379.325,222.13c2.87-60.21,3.08-94.08-12.9-125.18
		c-11.49-22.38-30.31-41.21-55.93-55.96c-30.45-17.53-65.2-26.13-100.48-24.87c-28.95,1.03-55.93,14.56-74.55,37.26l19.25,97.75
		c19.77,19.96,86.31,75.93,206.74,71.98L379.325,222.13z M353.805,273.97v-34.68c-52.36,0.62-100.41-9.41-142.93-29.88
		c-28.61-13.76-48.77-29.5-61.08-40.81c-14.51,27.47-37.61,43.49-70.19,48.72v56.65c0,31.6,25.8,72.64,74.63,118.67
		c35.03,33.02,89.91,33.02,124.94,0C327.995,346.61,353.805,305.57,353.805,273.97z M138.995,154.14l-18.61-94.5
		c-21.1,2.23-40.07,14.07-50.44,31.9c-1.03,1.77-2.03,3.59-2.96,5.41c-15.39,29.94-15.77,62.43-13.22,118.47
		c3.11-1.37,6.4-2.39,9.84-3.01v-2.08c0-4.08,3.07-7.51,7.13-7.95C104.525,198.69,126.275,183.34,138.995,154.14z M64.235,283.79
		c-0.41-3.32-0.63-6.6-0.63-9.82v-45.15c-11.86,3.47-20.55,14.44-20.55,27.4C43.055,269.41,52.055,280.54,64.235,283.79z"/>
	<path style="fill:#FCD9EB;" d="M383.695,237.91c4.31,5.13,6.65,11.52,6.65,18.31c0,13.19-8.99,24.32-21.17,27.57
		c0.41-3.32,0.63-6.6,0.63-9.82v-35.29L383.695,237.91z"/>
	<path style="fill:#56304E;" d="M366.425,96.95c15.98,31.1,15.77,64.97,12.9,125.18l-17.87,0.98
		c-120.43,3.95-186.97-52.02-206.74-71.98l-19.25-97.75c18.62-22.7,45.6-36.23,74.55-37.26c35.28-1.26,70.03,7.34,100.48,24.87
		C336.115,55.74,354.935,74.57,366.425,96.95z"/>
	<path style="fill:#FCD9EB;" d="M353.805,239.29v34.68c0,31.6-25.81,72.64-74.63,118.67c-35.03,33.02-89.91,33.02-124.94,0
		c-48.83-46.03-74.63-87.07-74.63-118.67v-56.65c32.58-5.23,55.68-21.25,70.19-48.72c12.31,11.31,32.47,27.05,61.08,40.81
		C253.395,229.88,301.445,239.91,353.805,239.29z M309.645,260.33c0-8.31-6.73-15.05-15.04-15.05s-15.05,6.74-15.05,15.05
		s6.74,15.05,15.05,15.05S309.645,268.64,309.645,260.33z M237.955,358.88c4.06-1.73,5.96-6.43,4.23-10.5
		c-1.74-4.06-6.43-5.95-10.5-4.22c-15.11,6.43-32.63-0.63-39.06-15.73c-1.73-4.07-6.43-5.96-10.5-4.23
		c-4.06,1.73-5.96,6.43-4.22,10.5c7.4,17.39,24.37,27.84,42.18,27.84C226.055,362.54,232.125,361.36,237.955,358.88z
		 M161.565,269.32c3.13-3.13,3.13-8.19,0-11.32c-11.98-11.98-31.48-11.98-43.46,0c-3.13,3.13-3.13,8.19,0,11.32
		c3.12,3.12,8.19,3.12,11.31,0c5.75-5.75,15.09-5.75,20.84,0c1.56,1.56,3.61,2.34,5.65,2.34
		C157.955,271.66,160.005,270.88,161.565,269.32z"/>
	<path style="fill:#68330F;" d="M294.605,245.28c8.31,0,15.04,6.74,15.04,15.05s-6.73,15.05-15.04,15.05s-15.05-6.74-15.05-15.05
		S286.295,245.28,294.605,245.28z"/>
	<path style="fill:#333333;" d="M242.185,348.38c1.73,4.07-0.17,8.77-4.23,10.5c-5.83,2.48-11.9,3.66-17.87,3.66
		c-17.81,0-34.78-10.45-42.18-27.84c-1.74-4.07,0.16-8.77,4.22-10.5c4.07-1.73,8.77,0.16,10.5,4.23
		c6.43,15.1,23.95,22.16,39.06,15.73C235.755,342.43,240.445,344.32,242.185,348.38z"/>
	<path style="fill:#333333;" d="M161.565,258c3.13,3.13,3.13,8.19,0,11.32c-1.56,1.56-3.61,2.34-5.66,2.34
		c-2.04,0-4.09-0.78-5.65-2.34c-5.75-5.75-15.09-5.75-20.84,0c-3.12,3.12-8.19,3.12-11.31,0c-3.13-3.13-3.13-8.19,0-11.32
		C130.085,246.02,149.585,246.02,161.565,258z"/>
	<path style="fill:#56304E;" d="M120.385,59.64l18.61,94.5c-12.72,29.2-34.47,44.55-68.26,48.24c-4.06,0.44-7.13,3.87-7.13,7.95
		v2.08c-3.44,0.62-6.73,1.64-9.84,3.01c-2.55-56.04-2.17-88.53,13.22-118.47c0.93-1.82,1.93-3.64,2.96-5.41
		C80.315,73.71,99.285,61.87,120.385,59.64z"/>
	<path style="fill:#FCD9EB;" d="M63.605,273.97c0,3.22,0.22,6.5,0.63,9.82c-12.18-3.25-21.18-14.38-21.18-27.57
		c0-12.96,8.69-23.93,20.55-27.4V273.97z"/>
</g>
<g>
</g>
<g>
</g>
<g>
</g>
<g>
</g>
<g>
</g>
<g>
</g>
<g>
</g>
<g>
</g>
<g>
</g>
<g>
</g>
<g>
</g>
<g>
</g>
<g>
</g>
<g>
</g>
<g>
</g>
</svg>
