<?xml version="1.0" encoding="iso-8859-1"?>
<!-- Generator: Adobe Illustrator 19.0.0, SVG Export Plug-In . SVG Version: 6.00 Build 0)  -->
<svg version="1.1" id="Capa_1" xmlns="http://www.w3.org/2000/svg" xmlns:xlink="http://www.w3.org/1999/xlink" x="0px" y="0px"
	 viewBox="0 0 512 512" style="enable-background:new 0 0 512 512;" xml:space="preserve">
<path style="fill:#01579B;" d="M426.667,283.584v-13.163l68.693-85.888c10.758-13.467,16.624-30.188,16.64-47.424
	c-0.012-16.808-13.635-30.431-30.443-30.443H406.72c-11.557-0.039-22.002,6.88-26.475,17.536
	c-14.472,39.807-33.515,77.8-56.747,113.216c-7.151,5.611-17.003,6.287-24.853,1.707v-109.12
	c-0.07-12.852-10.465-23.257-23.317-23.339h-93.995c-5.891-0.011-10.675,4.757-10.686,10.648c-0.005,2.84,1.123,5.565,3.134,7.571
	l5.845,5.845c7.939,7.892,12.394,18.63,12.373,29.824v81.067c-1,1.021-2.288,1.713-3.691,1.984
	c-3.958-0.611-7.552-2.662-10.091-5.76c-27.453-39.826-51.761-81.731-72.704-125.333c-1.817-3.586-5.495-5.845-9.515-5.845H27.733
	C12.417,106.667,0,119.083,0,134.4c0,0,0,0,0,0v5.44c-0.018,22.5,6.255,44.557,18.112,63.68
	c57.216,92.053,135.68,201.813,184.555,201.813h69.781c14.47-0.023,26.195-11.748,26.219-26.219v-18.261
	c-0.005-10.769,8.721-19.503,19.49-19.507c5.182-0.002,10.151,2.058,13.811,5.726l44.288,44.288
	c8.95,8.978,21.115,14.008,33.792,13.973h76.117c14.245-0.021,25.775-11.586,25.754-25.83c-0.01-6.818-2.719-13.355-7.535-18.181
	L426.667,283.584z"/>
<path d="M486.165,405.333h-76.117c-12.68,0.029-24.846-5.009-33.792-13.995l-44.288-44.288c-7.606-7.623-19.952-7.637-27.575-0.03
	c-3.668,3.66-5.728,8.63-5.726,13.811v18.261c-0.012,14.479-11.74,26.216-26.219,26.24h-69.781
	c-48.875,0-127.339-109.76-184.555-201.813C6.244,184.379-0.03,162.298,0,139.776V134.4c0-15.317,12.417-27.733,27.733-27.733
	c0,0,0,0,0,0H96c4.02,0,7.698,2.26,9.515,5.845c20.939,43.58,45.24,85.463,72.683,125.269c2.565,3.067,6.146,5.111,10.091,5.76
	c1.411-0.267,2.706-0.96,3.712-1.984v-81.067c0.032-11.209-4.424-21.965-12.373-29.867l-5.845-5.845
	c-4.112-4.218-4.026-10.972,0.192-15.084c1.971-1.921,4.608-3.006,7.36-3.028h93.995c12.86,0.07,23.269,10.478,23.339,23.339v109.12
	c7.851,4.581,17.702,3.904,24.853-1.707c23.232-35.416,42.275-73.409,56.747-113.216c4.47-10.649,14.904-17.566,26.453-17.536
	h74.837c16.808,0.012,30.431,13.635,30.443,30.443c-0.011,17.244-5.878,33.972-16.64,47.445l-68.693,85.867v13.163l77.739,77.739
	c10.062,10.083,10.045,26.414-0.038,36.475C499.536,402.619,492.991,405.329,486.165,405.333z M318.165,320
	c10.822,0.035,21.193,4.335,28.864,11.968l44.309,44.288c4.977,4.939,11.698,7.721,18.709,7.744h76.117
	c2.462-0.018,4.444-2.029,4.425-4.492c-0.009-1.163-0.471-2.276-1.289-3.103l-80.853-80.853c-1.999-2.004-3.12-4.721-3.115-7.552
	v-21.333c-0.002-2.418,0.818-4.765,2.325-6.656l71.04-88.789c7.739-9.686,11.958-21.714,11.968-34.112
	c0-5.031-4.078-9.109-9.109-9.109l0,0H406.72c-2.965-0.019-5.65,1.749-6.805,4.48c-19.989,47.531-46.933,107.072-62.101,120.768
	c-16.273,13.034-39.314,13.367-55.957,0.811c-2.837-1.999-4.525-5.254-4.523-8.725V130.005c0-1.108-0.898-2.005-2.005-2.005h-70.955
	c5.888,9.836,8.986,21.091,8.96,32.555v84.779c0.007,1.932-0.517,3.828-1.515,5.483c-4.611,7.423-12.215,12.482-20.843,13.867
	c-10.644,0.752-21.004-3.643-27.861-11.819C144.576,234.325,101.952,152.427,89.451,128H27.733c-3.535,0-6.4,2.865-6.4,6.4l0,0v5.44
	c-0.018,18.551,5.155,36.737,14.933,52.501C109.739,310.549,173.504,384,202.667,384h69.781c2.698,0,4.885-2.187,4.885-4.885l0,0
	v-18.261C277.345,338.304,295.616,320.024,318.165,320z"/>
<g>
</g>
<g>
</g>
<g>
</g>
<g>
</g>
<g>
</g>
<g>
</g>
<g>
</g>
<g>
</g>
<g>
</g>
<g>
</g>
<g>
</g>
<g>
</g>
<g>
</g>
<g>
</g>
<g>
</g>
</svg>
